<svg width="320" height="320" viewBox="0 0 320 320" fill="none" xmlns="http://www.w3.org/2000/svg">
<g clip-path="url(#clip0)">
<path d="M277.5 147.01C287.5 152.783 287.5 167.217 277.5 172.99L82.5 285.574C72.5 291.347 60 284.13 60 272.583L60 47.4167C60 35.8697 72.5 28.6528 82.5 34.4263L277.5 147.01Z" fill="#499C54"/>
<path d="M128.2 138.2C129.35 135.7 130 132.95 130 130C130 118.95 121.05 110 110 110C98.95 110 90 118.95 90 130C90 141.05 98.95 150 110 150C112.95 150 115.7 149.35 118.2 148.2L130 160L118.2 171.8C115.7 170.65 112.95 170 110 170C98.95 170 90 178.95 90 190C90 201.05 98.95 210 110 210C121.05 210 130 201.05 130 190C130 187.05 129.35 184.3 128.2 181.8L140 170L175 205H190V200L128.2 138.2ZM110 140C104.5 140 100 135.55 100 130C100 124.45 104.5 120 110 120C115.5 120 120 124.45 120 130C120 135.55 115.5 140 110 140ZM110 200C104.5 200 100 195.55 100 190C100 184.45 104.5 180 110 180C115.5 180 120 184.45 120 190C120 195.55 115.5 200 110 200ZM140 162.5C138.6 162.5 137.5 161.4 137.5 160C137.5 158.6 138.6 157.5 140 157.5C141.4 157.5 142.5 158.6 142.5 160C142.5 161.4 141.4 162.5 140 162.5ZM175 115L145 145L155 155L190 120V115H175Z" fill="white"/>
</g>
<defs>
<clipPath id="clip0">
<rect width="320" height="320" fill="white"/>
</clipPath>
</defs>
</svg>
